.
 
http://www.scenetime.com    -  Hottest private tracker on the net. !!!

New release on http://www.scenetime.com

        Seed back for speed


...................................NFO:.................................................[IMG]http://img94.imageshack.us/img94/89/gfdertyhbvc.png[/IMG]


[color=blue][size=5][b]The.Girl.With.The.Dragon.Tattoo.2012.CAM.SeT-CM8[/b][/size][/color]


[b]Source: INFERNO thank you very much guys

Bitrate: 1739 Kbps
Video: 720 x 304
Audio: English MP3
Sample: Yes, included

Note:
Not a bad cam at all, has a slight strobe effect, but not constant
Audio is very nice[/b]
 
http://www.imdb.com/title/tt1568346/


General
Complete name                    : The.Girl.With.The.Dragon.Tattoo.2012.CAM.SeT-CM8.avi
Format                           : AVI
Format/Info                      : Audio Video Interleave
File size                        : 1.17 GiB
Duration                         : 1h 35mn
Overall bit rate                 : 1 739 Kbps

Video
ID                               : 0
Format                           : MPEG-4 Visual
Format profile                   : Advanced Simple@L5
Format settings, BVOP            : 2
Format settings, QPel            : No
Format settings, GMC             : No warppoints
Format settings, Matrix          : Default (H.263)
Codec ID                         : XVID
Codec ID/Hint                    : XviD
Duration                         : 1h 35mn
Bit rate                         : 1 599 Kbps
Width                            : 720 pixels
Height                           : 304 pixels
Display aspect ratio             : 2.35:1
Frame rate                       : 29.970 fps
Color space                      : YUV
Chroma subsampling               : 4:2:0
Bit depth                        : 8 bits
Scan type                        : Progressive
Compression mode                 : Lossy
Bits/(Pixel*Frame)               : 0.244
Stream size                      : 1.07 GiB (92%)
Writing library                  : XviD 63

Audio
ID                               : 1
Format                           : MPEG Audio
Format version                   : Version 1
Format profile                   : Layer 3
Mode                             : Joint stereo
Mode extension                   : MS Stereo
Codec ID                         : 55
Codec ID/Hint                    : MP3
Duration                         : 1h 35mn
Bit rate mode                    : Constant
Bit rate                         : 128 Kbps
Channel(s)                       : 2 channels
Sampling rate                    : 44.1 KHz
Compression mode                 : Lossy
Stream size                      : 87.8 MiB (7%)
Alignment                        : Aligned on interleaves
Interleave, duration             : 33 ms (1.00 video frame)


Cast:
Daniel Craig          ...    Mikael Blomkvist
Rooney Mara           ...    Lisbeth Salander
Christopher Plummer   ...    Henrik Vanger
Stellan Skarsgrd     ...    Martin Vanger
Steven Berkoff        ...    Frode
Robin Wright          ...    Erika Berger 


Plot:
Journalist Mikael Blomkvist is aided in his search for a woman who has been
missing for forty years by Lisbeth Salander, a young computer hacker.


[img]http://img706.imageshack.us/img706/6858/ewsxcvbnjh.png[/img]
[img]http://img707.imageshack.us/img707/3792/zxsdcvfre.png[/img]
[img]http://img267.imageshack.us/img267/8629/juygtbvnmk.png[/img]
[img]http://img20.imageshack.us/img20/2049/olkmnhju.png[/img]
[img]http://img835.imageshack.us/img835/3980/yhnbvgtrf.png[/img]
[img]http://img856.imageshack.us/img856/7708/aswedcxza.png[/img]
[img]http://img69.imageshack.us/img69/723/wertgfvcd.png[/img]



Greetz:

Once again,thank you very much to jtr INFERNO for suppling us with the files

big shout out to all @ CM8 Mr Hive,Sir Unevano,Super TED,Mr Pinny and Mr Simmo.
Greets to INFERNO,jtr,SAiNTS,DTRG,SANTi,BDK,ViSiON,THC,SAFC,3LTON,AMIABLE and mSD
all the other Legends out there Past and Present..

LOOKING FOR ANYTHING YOU WANT TO LOOK AND SOUND BETTER

CM8@hushmail.com